
<svg
   version="1.1"
   id="svg9"
   width="4001.3333"
   height="2000.6667"
   viewBox="0 0 4001.3333 2000.6667"
   sodipodi:docname="Palestine Watermelon Flag.svg"
   inkscape:version="1.2.1 (9c6d41e, 2022-07-14)"
   xmlns:inkscape="http://www.inkscape.org/namespaces/inkscape"
   xmlns:sodipodi="http://sodipodi.sourceforge.net/DTD/sodipodi-0.dtd"
   xmlns="http://www.w3.org/2000/svg"
   xmlns:svg="http://www.w3.org/2000/svg">
  <defs
     id="defs13">
    <linearGradient
       id="linearGradient12281">
      <stop
         style="stop-color:#149954;stop-opacity:1;"
         offset="0"
         id="stop13737" />
      <stop
         style="stop-color:#ffffff;stop-opacity:1;"
         offset="1"
         id="stop13739" />
    </linearGradient>
  </defs>
  <sodipodi:namedview
     id="namedview11"
     pagecolor="#ffffff"
     bordercolor="#000000"
     borderopacity="0.25"
     inkscape:showpageshadow="2"
     inkscape:pageopacity="0.0"
     inkscape:pagecheckerboard="0"
     inkscape:deskcolor="#d1d1d1"
     showgrid="false"
     showguides="true"
     inkscape:zoom="0.23092303"
     inkscape:cx="2000.6666"
     inkscape:cy="1002.4985"
     inkscape:window-width="1443"
     inkscape:window-height="815"
     inkscape:window-x="0"
     inkscape:window-y="37"
     inkscape:window-maximized="0"
     inkscape:current-layer="layer1">
    <inkscape:page
       x="0"
       y="0"
       id="page15"
       width="4001.3333"
       height="2000.6667"
       inkscape:export-filename="Palestine Watermelon Flag.pdf"
       inkscape:export-xdpi="96"
       inkscape:export-ydpi="96" />
  </sodipodi:namedview>
  <g
     id="g17"
     inkscape:groupmode="layer"
     inkscape:label="Page 1"
     transform="matrix(1.3333333,0,0,-1.3333333,0,2000.6667)" />
  <g
     inkscape:groupmode="layer"
     id="layer1"
     inkscape:label="Page 2">
    <rect
       style="display:inline;fill:#000000;stroke-width:0.990795"
       id="rect246"
       width="4000"
       height="666.66602"
       x="-2.6958807e-07"
       y="0"
       inkscape:label="Black" />
    <rect
       style="display:inline;fill:#149954;stroke-width:0.990795;fill-opacity:1"
       id="rect246-4"
       width="4000"
       height="666.66602"
       x="-2.6958807e-07"
       y="1333.333"
       inkscape:label="Green" />
    <rect
       style="display:inline;fill:#ffffff;stroke-width:0.990795;fill-opacity:1"
       id="rect246-9"
       width="4000"
       height="666.66602"
       x="-2.6958807e-07"
       y="666.66602"
       inkscape:label="White" />
    <path
       style="display:none;fill:#e4312b;fill-opacity:1;stroke:#000000;stroke-width:2;stroke-dasharray:none;stroke-opacity:1"
       d="M 464.16359,0 C 464.16359,0 -2.6958807e-7,333.33301 -2.6958807e-7,999.99902 -2.6958807e-7,1666.666 464.67783,2000.6668 464.67783,2000.6668 L 1322.4747,999.99902 Z"
       id="path6321"
       sodipodi:nodetypes="csccc" />
    <path
       style="display:none;fill:#149954;fill-opacity:1;stroke:#000000;stroke-width:2;stroke-dasharray:none;stroke-opacity:1"
       d="m 533.57216,80.866371 c 0,0 -428.55523,252.466639 -437.34118,919.467329 -8.776382,666.2746 437.84533,914.8861 437.84533,914.8861 l -69.39848,85.447 C 464.67783,2000.6668 -2.6958807e-7,1666.666 -2.6958807e-7,999.99902 -2.6958807e-7,333.33301 464.16359,0 464.16359,0 Z"
       id="path9952"
       sodipodi:nodetypes="csccscc" />
    <g
       id="g4664"
       transform="translate(4)">
      <path
         style="fill:#149954;fill-opacity:1;stroke:#000000;stroke-width:3.76002;stroke-miterlimit:1.6;stroke-dasharray:none"
         id="path3141"
         sodipodi:type="arc"
         sodipodi:cx="1323.8464"
         sodipodi:cy="1020.9915"
         sodipodi:rx="1311.9656"
         sodipodi:ry="1282.1483"
         sodipodi:start="2.2759311"
         sodipodi:end="4.0594142"
         sodipodi:arc-type="slice"
         d="M 473.5137,1997.3785 A 1311.9656,1282.1483 0 0 1 12.327011,987.55688 1311.9656,1282.1483 0 0 1 526.75926,2.606775 L 1323.8464,1020.9915 Z" />
      <path
         style="fill:#ffffff;fill-opacity:1;stroke:none;stroke-width:7.52003;stroke-miterlimit:1.6;stroke-dasharray:none"
         id="path3251"
         sodipodi:type="arc"
         sodipodi:cx="1323.8464"
         sodipodi:cy="1020.9915"
         sodipodi:rx="1192.8708"
         sodipodi:ry="1192.8708"
         sodipodi:start="2.2900147"
         sodipodi:end="4.0443131"
         sodipodi:arc-type="slice"
         d="M 537.98689,1918.4132 A 1192.8708,1192.8708 0 0 1 131.36557,990.49165 1192.8708,1192.8708 0 0 1 584.89077,84.569928 L 1323.8464,1020.9915 Z" />
      <path
         style="fill:#e4312b;fill-opacity:1;stroke:none;stroke-width:7.52003;stroke-miterlimit:1.6;stroke-dasharray:none"
         id="path3253"
         sodipodi:type="arc"
         sodipodi:cx="1323.8464"
         sodipodi:cy="1020.9915"
         sodipodi:rx="1155.6865"
         sodipodi:ry="1155.6865"
         sodipodi:start="2.2878907"
         sodipodi:end="4.0451449"
         sodipodi:arc-type="slice"
         d="M 564.33223,1892.0538 A 1155.6865,1155.6865 0 0 1 168.51889,992.18884 1155.6865,1155.6865 0 0 1 608.68048,113.165 l 715.16592,907.8265 z" />
      <path
         id="path4377"
         style="fill-rule:evenodd;stroke-width:2.60903;stroke-miterlimit:1.6"
         d="m 417.01993,771.82482 c -0.82272,9.27913 -31.08669,14.17715 -53.70457,12.17175 -22.6179,-2.0054 -29.02479,-10.15483 -28.20205,-19.43397 0.82274,-9.27913 8.56353,-16.17415 31.18142,-14.16875 22.61787,2.00541 51.54792,12.15183 50.7252,21.43097 z"
         sodipodi:nodetypes="sssss" />
      <path
         id="path4427"
         style="fill-rule:evenodd;stroke-width:2.60903;stroke-miterlimit:1.6"
         d="m 632.88661,916.02303 c 10e-6,9.31554 -29.71312,16.86728 -52.41973,16.86728 -22.70662,0 -29.80822,-7.55174 -29.80821,-16.86728 10e-6,-9.31553 7.10159,-16.86726 29.80821,-16.86726 22.7066,0 52.41972,7.55173 52.41973,16.86726 z"
         sodipodi:nodetypes="sssss" />
      <path
         id="path4429"
         style="fill-rule:evenodd;stroke-width:2.60903;stroke-miterlimit:1.6"
         d="m 443.72401,519.11831 c -3.56373,8.60693 -33.9056,4.21722 -54.88494,-4.46938 -20.97937,-8.68661 -24.65177,-18.38067 -21.08803,-26.98759 3.56374,-8.60691 13.01409,-12.86742 33.99345,-4.18082 20.97934,8.6866 45.54324,27.03087 41.97952,35.63779 z"
         sodipodi:nodetypes="sssss" />
      <path
         id="path4431"
         style="fill-rule:evenodd;stroke-width:2.60903;stroke-miterlimit:1.6"
         d="m 367.58921,983.55779 c 1e-5,9.3155 -29.71311,16.86731 -52.41972,16.86731 -22.70662,0 -29.80822,-7.55181 -29.80821,-16.86731 10e-6,-9.3156 7.10159,-16.8673 29.80821,-16.8673 22.7066,0 52.41971,7.5517 52.41972,16.8673 z"
         sodipodi:nodetypes="sssss" />
      <path
         id="path4433"
         style="fill-rule:evenodd;stroke-width:2.60903;stroke-miterlimit:1.6"
         d="m 606.21002,668.4638 c -2.27453,9.03359 -32.93221,9.10182 -54.95157,3.55762 -22.01937,-5.5442 -27.06214,-14.60134 -24.78759,-23.63492 2.27455,-9.03359 11.00506,-14.62279 33.02443,-9.07859 22.01935,5.5442 48.98927,20.12231 46.71473,29.15589 z"
         sodipodi:nodetypes="sssss" />
      <path
         id="path4435"
         style="fill-rule:evenodd;stroke-width:2.60903;stroke-miterlimit:1.6"
         d="m 614.73795,355.62761 c -5.28447,7.67161 -34.03796,-2.96487 -52.73749,-15.8458 -18.69953,-12.88092 -20.26397,-23.12855 -14.97947,-30.80014 5.28448,-7.6716 15.41674,-9.8621 34.11628,3.01882 18.6995,12.88092 38.88516,35.95551 33.60068,43.62712 z"
         sodipodi:nodetypes="sssss" />
      <path
         id="path4437"
         style="fill-rule:evenodd;stroke-width:2.60903;stroke-miterlimit:1.6"
         d="m 499.40852,1125.0297 c 10e-6,9.3156 -29.71311,21.1771 -52.41973,24.4706 -22.70662,3.2935 -29.80821,-3.2281 -29.8082,-12.5437 1e-5,-9.3155 7.10158,-17.8973 29.8082,-21.1908 22.70661,-3.2935 52.41972,-0.052 52.41973,9.2639 z"
         sodipodi:nodetypes="sssss" />
      <path
         id="path4439"
         style="fill-rule:evenodd;stroke-width:2.60903;stroke-miterlimit:1.6"
         d="m 770.91585,1326.7352 c 0,9.3156 -29.71311,25.4869 -52.41973,32.074 -22.70662,6.5871 -29.80821,1.0956 -29.8082,-8.22 1e-5,-9.3156 7.10158,-18.9275 29.8082,-25.5145 22.70661,-6.5871 52.41973,-7.6551 52.41973,1.6605 z"
         sodipodi:nodetypes="sssss" />
      <path
         id="path4441"
         style="fill-rule:evenodd;stroke-width:2.60903;stroke-miterlimit:1.6"
         d="m 872.13726,971.16991 c 0,9.31554 -29.7131,16.86728 -52.4197,16.86728 -22.7066,0 -29.80819,-7.55174 -29.80818,-16.86728 10e-6,-9.31553 7.10158,-16.86726 29.80818,-16.86726 22.7066,0 52.4197,7.55173 52.4197,16.86726 z"
         sodipodi:nodetypes="sssss" />
      <path
         id="path4443"
         style="fill-rule:evenodd;stroke-width:2.60903;stroke-miterlimit:1.6"
         d="m 498.20739,1346.8125 c 1.80773,9.1384 -25.87509,22.3126 -48.15006,26.719 -22.27498,4.4064 -30.70706,-1.6238 -32.51476,-10.7622 -1.80773,-9.1385 3.6934,-17.9247 25.96837,-22.3311 22.27496,-4.4063 52.8887,-2.7642 54.69645,6.3743 z"
         sodipodi:nodetypes="sssss" />
      <path
         id="path4445"
         style="fill-rule:evenodd;stroke-width:2.60903;stroke-miterlimit:1.6"
         d="m 496.34839,1497.1989 c 4.21365,8.3081 -18.87018,28.4832 -39.12112,38.754 -20.25096,10.2708 -30.00041,6.7479 -34.21404,-1.56 -4.21367,-8.3082 -1.29595,-18.2554 18.955,-28.5262 20.25093,-10.2708 50.16648,-16.9759 54.38016,-8.6678 z"
         sodipodi:nodetypes="sssss" />
      <path
         id="path4447"
         style="fill-rule:evenodd;stroke-width:2.60903;stroke-miterlimit:1.6"
         d="m 766.87251,555.35498 c -4.29477,8.26645 -34.14328,1.26898 -54.29273,-9.19953 -20.14946,-10.46852 -22.96969,-20.44387 -18.6749,-28.71031 4.29478,-8.26644 14.0782,-11.69366 34.22766,-1.22514 20.14944,10.46852 43.03474,30.86854 38.73997,39.13498 z"
         sodipodi:nodetypes="sssss" />
      <path
         id="path4449"
         style="fill-rule:evenodd;stroke-width:2.60903;stroke-miterlimit:1.6"
         d="m 699.75111,1152.0034 c 10e-6,9.3155 -29.71312,23.3319 -52.41973,28.2723 -22.70662,4.9402 -29.80821,-1.0664 -29.80821,-10.382 10e-6,-9.3155 7.10159,-18.4123 29.80821,-23.3526 22.7066,-4.9403 52.41972,-3.8533 52.41973,5.4623 z"
         sodipodi:nodetypes="sssss" />
      <path
         id="path4451"
         style="fill-rule:evenodd;stroke-width:2.60903;stroke-miterlimit:1.6"
         d="m 896.82434,805.47856 c -2.6795,8.92186 -33.3091,7.60778 -55.05609,1.07647 -21.74702,-6.53131 -26.3763,-15.80661 -23.69679,-24.72846 2.67953,-8.92184 11.65315,-14.11173 33.40018,-7.58042 21.74698,6.53132 48.03221,22.31055 45.3527,31.23241 z"
         sodipodi:nodetypes="sssss" />
      <path
         id="path4453"
         style="fill-rule:evenodd;stroke-width:2.60903;stroke-miterlimit:1.6"
         d="m 684.67761,1550.0976 c 3.54947,8.6128 -21.04484,26.9164 -42.03857,35.5681 -20.99375,8.6518 -30.43702,4.3756 -33.98647,-4.2373 -3.54945,-8.6128 0.13903,-18.3007 21.13277,-26.9525 20.99372,-8.6518 51.3428,-12.9912 54.89227,-4.3783 z"
         sodipodi:nodetypes="sssss" />
      <path
         id="path4610"
         style="fill-rule:evenodd;stroke-width:2.60903;stroke-miterlimit:1.6"
         d="m 954.07316,1118.0938 c 10e-6,9.3155 -29.71312,23.3319 -52.41973,28.2723 -22.70662,4.9402 -29.80821,-1.0664 -29.80821,-10.382 10e-6,-9.3155 7.10159,-18.4123 29.80821,-23.3526 22.7066,-4.9403 52.41972,-3.8533 52.41973,5.4623 z"
         sodipodi:nodetypes="sssss" />
    </g>
  </g>
</svg>